<svg width="18" height="22" viewBox="0 0 18 22" fill="none" xmlns="http://www.w3.org/2000/svg">
<path d="M8.79209 0.781618C8.63716 0.814548 8.49144 0.89868 8.2 1.06695L0.8 5.33934C0.508559 5.5076 0.362835 5.59173 0.256855 5.70944C0.163084 5.81358 0.0922488 5.93627 0.0489435 6.06955C0 6.22018 0 6.38845 0 6.72498V15.2698C0 15.6063 0 15.7746 0.0489435 15.9252C0.0922488 16.0585 0.163084 16.1812 0.256855 16.2853C0.362835 16.403 0.508557 16.4871 0.8 16.6554L8.2 20.9278C8.49143 21.096 8.63717 21.1802 8.79209 21.2131C8.92916 21.2423 9.07083 21.2423 9.20791 21.2131C9.36283 21.1802 9.50856 21.0961 9.8 20.9278L17.2 16.6554C17.4914 16.4871 17.6372 16.403 17.7431 16.2853C17.8369 16.1812 17.9078 16.0585 17.9511 15.9252C18 15.7746 18 15.6063 18 15.2698V6.72498C18 6.38845 18 6.22018 17.9511 6.06955C17.9078 5.93627 17.8369 5.81358 17.7431 5.70944C17.6372 5.59173 17.4914 5.5076 17.2 5.33934L9.8 1.06695C9.50856 0.89868 9.36283 0.814548 9.20791 0.781618C9.07083 0.752481 8.92916 0.752481 8.79209 0.781618ZM9 13.995C7.34315 13.995 6 12.6518 6 10.995C6 9.3381 7.34315 7.99496 9 7.99496C10.6569 7.99496 12 9.3381 12 10.995C12 12.6518 10.6569 13.995 9 13.995Z" fill="#00AAFF"/>
</svg>
