<svg xmlns="http://www.w3.org/2000/svg" viewBox="0 0 24 24" ><svg><path fill-rule="evenodd" clip-rule="evenodd" d="M2.11567 3.24725C1.6914 3.41043 1.43057 3.83924 1.48077 4.29103C1.84163 7.53881 3.54327 11.3489 7.08246 15.1293L7.72624 15.796C7.74344 15.8133 7.76067 15.8306 7.77795 15.8479L8.49666 16.5434C12.277 20.0826 16.0871 21.7842 19.3349 22.1451C19.7867 22.1953 20.2155 21.9344 20.3787 21.5102L22.1465 16.914C22.3395 16.4122 22.1012 15.8476 21.607 15.6358L16.6573 13.5145C16.3536 13.3844 16.0052 13.4126 15.7265 13.59L15.2496 13.8935C13.3912 15.0761 11.2397 15.0669 9.89941 13.7266L9.88181 13.709C8.55889 12.3675 8.5549 10.2266 9.73235 8.37634L10.0358 7.89945C10.2132 7.62071 10.2415 7.27234 10.1113 6.96866L7.98999 2.01891C7.77821 1.52477 7.21364 1.28649 6.71186 1.47948L2.11567 3.24725ZM8.04503 7.30259C7.18934 8.64724 6.73582 10.2736 6.90388 11.8323C4.97786 9.31109 3.95652 6.90141 3.57963 4.82702L6.53103 3.69186L8.06502 7.27117L8.04503 7.30259ZM16.3234 15.5808C14.9787 16.4365 13.3524 16.89 11.7936 16.722C14.3149 18.648 16.7245 19.6693 18.7989 20.0462L19.9341 17.0948L16.3548 15.5608L16.3234 15.5808Z"></path></svg></svg>
