<svg xmlns="http://www.w3.org/2000/svg" width="16" height="16" fill="none"><circle cx="8" cy="6.8" r="1.8" stroke="#000" stroke-width="1.2"/><path fill="#000" d="m8 15-.5.4a.6.6 0 0 0 1 0L8 15Zm-4.2-4.8-.5.4.5-.4Zm8.4 0 .5.4-.5-.4Zm-9-3.4C3.2 4.1 5.3 2 8 2V.8a6 6 0 0 0-6 6h1.2ZM8 2c2.7 0 4.8 2.1 4.8 4.8H14a6 6 0 0 0-6-6V2Zm.5 12.6L4.3 9.8l-1 .8 4.2 4.8 1-.8Zm3.2-4.8-4.2 4.8 1 .8 4.2-4.8-1-.8Zm1.1-3c0 1.1-.4 2.2-1 3l.9.8A6 6 0 0 0 14 6.8h-1.2Zm-8.5 3C3.6 9 3.2 8 3.2 6.8H2a6 6 0 0 0 1.3 3.8l1-.8Z"/></svg>
