<svg xmlns="http://www.w3.org/2000/svg" viewBox="0 0 24 24"><svg><path fill-rule="evenodd" clip-rule="evenodd" d="M5.98205 6.75756C4.70706 7.81985 4.00049 9.35357 4.00049 11.3125C4.00049 13.737 5.0818 15.5463 7.08024 16.5959C7.35949 16.7426 7.55316 17.0124 7.60278 17.3239L7.85895 18.9322L9.24266 17.7325C9.46109 17.5432 9.75079 17.4576 10.0371 17.4979C10.6366 17.5822 11.2813 17.6265 11.9705 17.6265C14.672 17.6265 16.6623 16.9479 17.9589 15.8675C19.2339 14.8052 19.9405 13.2715 19.9405 11.3125C19.9405 9.35357 19.2339 7.81985 17.9589 6.75756C16.6623 5.67722 14.672 4.99854 11.9705 4.99854C9.26893 4.99854 7.2787 5.67722 5.98205 6.75756ZM4.70182 5.221C6.46113 3.75518 8.9559 2.99854 11.9705 2.99854C14.9851 2.99854 17.4798 3.75518 19.2392 5.221C21.0201 6.70487 21.9405 8.82815 21.9405 11.3125C21.9405 13.7969 21.0201 15.9202 19.2392 17.4041C17.4798 18.8699 14.9851 19.6265 11.9705 19.6265C11.3631 19.6265 10.778 19.5959 10.2165 19.5352L7.80953 21.6221C7.53517 21.86 7.15343 21.9304 6.81223 21.8061C6.47104 21.6819 6.22402 21.3824 6.1669 21.0238L5.70359 18.1151C3.29681 16.6648 2.00049 14.2608 2.00049 11.3125C2.00049 8.82815 2.92084 6.70487 4.70182 5.221Z"></path></svg></svg>
