<svg width="24" height="24" viewBox="0 0 24 24" fill="none" xmlns="http://www.w3.org/2000/svg"><path opacity=".01" fill="#FF6163" d="M0 0h24v24H0z"/><path fill-rule="evenodd" clip-rule="evenodd" d="M2.48 9.074c-.312-.788-.477-1.506-.48-2.247l1-.004 1-.004c.002.464.113.948.34 1.522.392.996.974 1.959 1.793 3.02a36.702 36.702 0 0 0 6.045 6.156c1.11.895 2.128 1.55 3.184 2.012.82.358 1.463.51 2.09.466.352-.025.594-.122.778-.304.765-.758 1.111-1.105 1.53-1.534a.797.797 0 0 0-.085-1.212l-1.577-1.231-.79-.616a.84.84 0 0 0-1.017-.01 10.31 10.31 0 0 0-.256.202c-.137.11-.2.16-.284.223-.83.63-1.956.576-2.719-.133a8.896 8.896 0 0 1-.324-.32l-.113-.114-1.052-1.053a1975.22 1975.22 0 0 1-2.825-2.832c-.798-.802-.866-1.94-.178-2.834a26.42 26.42 0 0 1 .286-.363l.054-.07c.318-.404.32-.744.005-1.15-.603-.78-1.192-1.537-1.772-2.278-.36-.46-.869-.49-1.287-.072a80.04 80.04 0 0 0-.447.45c-.463.47-.672.68-.943.938-.304.29-.438.64-.436 1.137l-1 .004-1 .004c-.004-1.024.334-1.904 1.055-2.592.252-.24.451-.44.901-.896l.456-.46c1.266-1.264 3.175-1.153 4.276.254.582.744 1.174 1.505 1.78 2.287.874 1.131.868 2.485-.014 3.61h-.001l-.116.147-.212.27c-.078.102-.078.115.01.203.784.787 1.411 1.416 2.823 2.83l1.052 1.053.065.065.061.063c.131.134.189.19.257.254.05.046.092.049.148.006.065-.05.119-.092.243-.192.146-.117.213-.17.302-.237a2.84 2.84 0 0 1 3.452.03l.804.626 1.565 1.22a2.797 2.797 0 0 1 .285 4.185c-.43.44-.781.792-1.554 1.558-.55.545-1.245.823-2.047.879-.999.07-1.941-.153-3.03-.629-1.237-.541-2.402-1.289-3.64-2.289a38.7 38.7 0 0 1-6.373-6.49c-.924-1.2-1.6-2.317-2.069-3.508Z" fill="#B8B8B8"/></svg>
