<svg fill="#CCCCCC" viewBox="0 0 30 30" xmlns="http://www.w3.org/2000/svg"><path d="M16.8495 16C17.5672 16 18.1629 16 18.6524 16.0381C19.1634 16.0778 19.6341 16.1631 20.0867 16.3739C20.7647 16.6896 21.3406 17.1891 21.749 17.8156C22.0216 18.2338 22.1726 18.6877 22.2843 19.188C22.3912 19.6672 22.4754 20.2569 22.5769 20.9674L22.99 23.8586C23.031 24.1456 22.9454 24.4362 22.7555 24.6552C22.5655 24.8742 22.2899 25 22 25H8.00001C7.71012 25 7.43449 24.8742 7.24455 24.6552C7.05462 24.4362 6.96906 24.1456 7.01006 23.8586L7.42309 20.9674C7.52457 20.2569 7.6088 19.6672 7.71574 19.188C7.82737 18.6877 7.97837 18.2338 8.25103 17.8156C8.65945 17.1891 9.23533 16.6896 9.9133 16.3739C10.3659 16.1631 10.8366 16.0778 11.3476 16.0381C11.8372 16 12.4328 16 13.1505 16H16.8495Z"></path><path d="M15 14C17.4853 14 19.5 11.9853 19.5 9.5C19.5 7.01472 17.4853 5 15 5C12.5147 5 10.5 7.01472 10.5 9.5C10.5 11.9853 12.5147 14 15 14Z"></path></svg>