<svg viewBox="0 0 24 24" xmlns="http://www.w3.org/2000/svg"><svg><path fill-rule="evenodd" clip-rule="evenodd" d="M4 6.99853C4 4.7894 5.79086 2.99854 8 2.99854H16C18.2091 2.99854 20 4.7894 20 6.99854V20.4352C20 21.1651 19.2434 21.6491 18.5807 21.3431L12.4193 18.4977C12.1533 18.3749 11.8468 18.3749 11.5807 18.4977L5.41926 21.3431C4.75662 21.6491 4 21.1651 4 20.4352V6.99853ZM8 4.99854H16C17.1046 4.99854 18 5.89397 18 6.99854V18.872L13.2578 16.682C12.4598 16.3134 11.5402 16.3134 10.7422 16.682L6 18.872V6.99853C6 5.89397 6.89543 4.99854 8 4.99854Z"></path></svg></svg>
