<svg width="24" height="24" fill="none" xmlns="http://www.w3.org/2000/svg"><path fill-rule="evenodd" clip-rule="evenodd" d="M9.477 4.032c-.59.648-.977 1.63-.977 2.918 0 2.29.694 3.732 1.612 4.442l.388.791v.355a3 3 0 0 1-2.227 2.9l-3.636.969a2.442 2.442 0 0 0-.917.445 1.82 1.82 0 0 0-.526.684l-.913-.407.913.407A2.441 2.441 0 0 0 3 18.538v1.18c0 .147.006.228.011.27.043.006.124.012.27.012H14v2H3.282c-.527 0-.875-.055-1.242-.252a1.908 1.908 0 0 1-.788-.788C1.055 20.593 1 20.245 1 19.718v-1.18c0-.646.12-1.26.368-1.816a3.82 3.82 0 0 1 1.094-1.425 4.434 4.434 0 0 1 1.66-.823l3.636-.97a1 1 0 0 0 .737-.868C7.168 11.371 6.5 9.362 6.5 6.95c0-1.688.513-3.181 1.498-4.264C8.99 1.594 10.393 1 12 1c1.607 0 3.009.594 4.002 1.686.986 1.083 1.498 2.576 1.498 4.264 0 2.412-.668 4.421-1.995 5.686a1 1 0 0 0 .737.869l-.515 1.932a3 3 0 0 1-2.227-2.899v-.355l.388-.79c.918-.71 1.612-2.153 1.612-4.443 0-1.288-.387-2.27-.977-2.918C13.94 3.392 13.093 3 12 3c-1.093 0-1.941.392-2.523 1.032z" fill="#B8B8B8"/><path fill-rule="evenodd" clip-rule="evenodd" d="M18.5 20.44l-2.46 1.518a.286.286 0 0 1-.38-.072.24.24 0 0 1-.036-.21l.789-2.649-2.31-1.712a.243.243 0 0 1-.043-.358.28.28 0 0 1 .202-.096l2.948-.12 1.034-2.575a.28.28 0 0 1 .352-.15c.074.026.133.08.16.15l1.034 2.575 2.948.12c.151.006.268.125.262.266a.25.25 0 0 1-.103.189l-2.31 1.711.789 2.65c.04.136-.045.276-.19.314a.29.29 0 0 1-.225-.033L18.5 20.44z" fill="#B8B8B8"/></svg>
