<?xml version="1.0" encoding="utf-8"?><svg viewBox="0 0 512 512" xmlns="http://www.w3.org/2000/svg" xmlns:xlink="http://www.w3.org/1999/xlink"><style>:root>svg{display:none}:root>svg:target{display:block}</style><svg viewBox="0 0 488.85 488.85" id="eye" xmlns="http://www.w3.org/2000/svg"><path d="M244.425 98.725c-93.4 0-178.1 51.1-240.6 134.1-5.1 6.8-5.1 16.3 0 23.1 62.5 83.1 147.2 134.2 240.6 134.2s178.1-51.1 240.6-134.1c5.1-6.8 5.1-16.3 0-23.1-62.5-83.1-147.2-134.2-240.6-134.2zm6.7 248.3c-62 3.9-113.2-47.2-109.3-109.3 3.2-51.2 44.7-92.7 95.9-95.9 62-3.9 113.2 47.2 109.3 109.3-3.3 51.1-44.8 92.6-95.9 95.9zm-3.1-47.4c-33.4 2.1-61-25.4-58.8-58.8 1.7-27.6 24.1-49.9 51.7-51.7 33.4-2.1 61 25.4 58.8 58.8-1.8 27.7-24.2 50-51.7 51.7z" data-original="#000000"/></svg><svg viewBox="0 0 30 30" id="like" xmlns="http://www.w3.org/2000/svg"><path d="M10.286 5.5c1.955 0 3.674.959 4.714 2.435A5.742 5.742 0 0119.714 5.5C23.24 5.5 26 8.392 26 11.786c0 1.778-.763 3.274-1.731 4.362a1.09 1.09 0 01-.047.05l-8.486 8.38a1.048 1.048 0 01-1.472 0l-8.49-8.385C4.74 15.161 4 13.533 4 11.786 4 8.26 6.892 5.5 10.286 5.5z"/></svg><svg viewBox="0 0 20 20" id="minus" xmlns="http://www.w3.org/2000/svg"><path fill-rule="evenodd" clip-rule="evenodd" d="M15.7 11.7v-1.4H4.3v1.4h11.4z"/></svg><svg viewBox="0 0 18 20" id="notifications" xmlns="http://www.w3.org/2000/svg"><path d="M9 0a6.632 6.632 0 00-6.632 6.632v6.631L0 14.21v.948a1.9 1.9 0 001.895 1.895h4.737a2.368 2.368 0 104.736 0h4.737A1.9 1.9 0 0018 15.158v-.947l-2.368-.948V6.632A6.632 6.632 0 009 0z"/></svg><svg viewBox="0 0 24 24" id="plus" xmlns="http://www.w3.org/2000/svg"><path d="M11 11V4a1 1 0 011-1 1 1 0 011 1v7h7a1 1 0 011 1 1 1 0 01-1 1h-7v7a1 1 0 01-1 1 1 1 0 01-1-1v-7H4a1 1 0 01-1-1 1 1 0 011-1h7z"/></svg><svg tabindex="0" aria-hidden="false" data-icon="send" viewBox="0 0 24 24" data-marker="icebreakers/send-message" id="send"><rect/><path d="M22 12a1 1 0 01-.57.9l-17 8a1 1 0 01-1.4-1.16l1.5-5.5a1 1 0 01.61-.67L9.21 12l-4.07-1.57a1 1 0 01-.6-.67l-1.5-5.5A1 1 0 014.43 3.1l17 8a1 1 0 01.57.9z"/></svg><svg viewBox="0 0 18 22" id="settings" xmlns="http://www.w3.org/2000/svg"><path d="M8.792.782c-.155.033-.3.117-.592.285L.8 5.339c-.291.169-.437.253-.543.37a1 1 0 00-.208.36C0 6.22 0 6.39 0 6.726v8.545c0 .336 0 .505.049.655a1 1 0 00.208.36c.106.118.252.202.543.37l7.4 4.273c.291.168.437.252.592.285.137.03.279.03.416 0 .155-.033.3-.117.592-.285l7.4-4.273c.291-.168.437-.252.543-.37a1 1 0 00.208-.36c.049-.15.049-.319.049-.655V6.725c0-.337 0-.505-.049-.655a1 1 0 00-.208-.36c-.106-.118-.252-.202-.543-.37L9.8 1.066C9.509.899 9.363.815 9.208.782a1 1 0 00-.416 0zM9 13.995a3 3 0 110-6 3 3 0 010 6z"/></svg><svg viewBox="0 0 24 24" id="share" xmlns="http://www.w3.org/2000/svg"><path d="M18 16.08a2.92 2.92 0 11-2.84 2.27l-7.12-4.16A2.99 2.99 0 013 12a3 3 0 015.04-2.19l7.05-4.11a3 3 0 11.87 1.49L8.91 11.3c.05.23.09.46.09.7 0 .24-.04.47-.09.7l7.13 4.15c.52-.47 1.2-.77 1.96-.77zM18 6a1 1 0 100-2 1 1 0 000 2zm0 14a1 1 0 100-2 1 1 0 000 2zM6 13a1 1 0 100-2 1 1 0 000 2z"/></svg><svg version="1" viewBox="0 0 36 36" id="star" xmlns="http://www.w3.org/2000/svg"><path d="M17.1 5.4L13.9 14l-9.2.3c-1.3.1-1.3 1.2-.6 1.8l7.2 5.7-2.5 8.8c-.4 1.1.7 1.6 1.5 1.1l7.6-5.1 7.6 5.1c.6.4 1.8.2 1.5-1.1l-2.5-8.8 7.2-5.7c.8-.7.8-1.7-.6-1.8l-9-.3L19 5.4c-.5-1.1-1.5-1.1-1.9 0z"/></svg><svg viewBox="0 0 32 32" id="user" xmlns="http://www.w3.org/2000/svg"><circle cx="16" cy="8" r="7" data-original="#000000"/><path d="M20.97 17h-9.94A8.04 8.04 0 003 25.03V30a1 1 0 001 1h24a1 1 0 001-1v-4.97A8.04 8.04 0 0020.97 17z" data-original="#000000"/></svg></svg>