<svg width="31" height="31" viewBox="0 0 31 31" fill="none" xmlns="http://www.w3.org/2000/svg">
<rect width="31" height="31" fill="white"/>
<path fill-rule="evenodd" clip-rule="evenodd" d="M19.1202 27.3793L18.2126 28.2869H8.1376C6.42551 28.2869 5.0376 26.899 5.0376 25.1869V5.81191C5.0376 4.09983 6.42551 2.71191 8.1376 2.71191L22.8626 2.71192C24.5747 2.71192 25.9626 4.09983 25.9626 5.81191V20.5369L19.1202 27.3793C19.1201 27.3794 19.1203 27.3792 19.1202 27.3793ZM16.6626 18.9869H23.3276V5.81191C23.3276 5.5551 23.1194 5.34691 22.8626 5.34691L8.1376 5.34692C7.88079 5.34692 7.6726 5.5551 7.6726 5.81191V25.1869C7.6726 25.4437 7.88079 25.6519 8.1376 25.6519H16.6626L16.6626 18.9869Z" fill="#B8B8B8"/>
</svg>

